<svg width="230" height="230" viewBox="0 0 230 230" fill="none" xmlns="http://www.w3.org/2000/svg">
<rect width="230" height="230" fill="#E5E5E5"/>
<path d="M115 230C178.513 230 230 178.513 230 115C230 51.4873 178.513 0 115 0C51.4873 0 0 51.4873 0 115C0 178.513 51.4873 230 115 230Z" fill="#333333"/>
<path d="M124.24 101.708C124.24 98.452 125.34 95.944 127.54 94.184C129.74 92.336 132.776 91.412 136.648 91.412V136.688L184.828 91.412C186.324 92.644 187.556 93.964 188.524 95.372C189.492 96.692 189.976 97.88 189.976 98.936C189.976 101.136 188.656 103.468 186.016 105.932L155.128 134.972L194.992 182.756C194.024 183.812 192.88 184.648 191.56 185.264C190.328 185.88 189.096 186.188 187.864 186.188C184.432 186.188 181.66 184.956 179.548 182.492L146.152 142.892L136.648 151.736V176.288C136.648 179.632 135.636 182.14 133.612 183.812C131.588 185.396 128.464 186.188 124.24 186.188V101.708Z" fill="white"/>
<path d="M80.936 140.188C78.032 140.188 76.052 138.868 74.996 136.228L40.94 46.6C41.644 46.248 42.48 45.984 43.448 45.808C44.416 45.544 45.296 45.412 46.088 45.412C48.552 45.412 50.62 46.028 52.292 47.26C54.052 48.404 55.328 50.032 56.12 52.144L80.276 119.596L77.9 126.328L78.956 126.724L105.752 52.144C106.544 50.032 107.82 48.404 109.58 47.26C111.34 46.028 113.452 45.412 115.916 45.412C117.412 45.412 119.128 45.808 121.064 46.6L87.008 136.228C86.568 137.46 85.82 138.428 84.764 139.132C83.708 139.836 82.432 140.188 80.936 140.188Z" fill="white"/>
</svg>
